<mxfile host="app.diagrams.net" modified="2024-04-03T07:40:40.674Z" agent="Mozilla/5.0 (Windows NT 10.0; Win64; x64; rv:124.0) Gecko/20100101 Firefox/124.0" version="24.2.1" etag="xIqMdKPoitIBvJWsYPKh" type="github">
  <diagram name="Страница — 1" id="kWrBf9JK4gnqO6CmbT9K">
    <mxGraphModel>
      <root>
        <mxCell id="0" />
        <mxCell id="1" parent="0" />
      </root>
    </mxGraphModel>
  </diagram>
</mxfile>
